# xmcd
#
# Track frame offsets:
#	150
#	15101
#	27145
#	42972
#	64639
#	79934
#	92860
#	109490
#	126601
#	142515
#	159609
#	177659
#	194906
#
# Disc length: 2818 seconds
#
# Revision: 1
# Processed by: cddbd v1.5.2PL0 Copyright (c) Steve Scherf et al.
# Submitted via: audiograbber 1.83.01
#
DISCID=b20b000d
DTITLE=Lightnin' Malcolm - Renegade
DYEAR=2011
DGENRE=Blues
TTITLE0=Ain't Even Worried
TTITLE1=Stop Fightin' Over Me
TTITLE2=Renegade
TTITLE3=So Many Women
TTITLE4=Guilty Man
TTITLE5=My Lyin' Ass
TTITLE6=Last Nite I Hedl An Angel
TTITLE7=Precious Jewel
TTITLE8=Come Go With Me
TTITLE9=North Mississippi
TTITLE10=Foxfire Ranch
TTITLE11=Tell You Girl
TTITLE12=You Better Recognize
EXTD=
EXTT0=
EXTT1=
EXTT2=
EXTT3=
EXTT4=
EXTT5=
EXTT6=
EXTT7=
EXTT8=
EXTT9=
EXTT10=
EXTT11=
EXTT12=
PLAYORDER=
